<svg width="44" height="34" viewBox="0 0 44 34" fill="none" xmlns="http://www.w3.org/2000/svg">
    <symbol id="01" viewBox="0 0 44 34">
        <g>
            <path d="M23.564 16.992C23.564 22.3587 22.5367 26.4833 20.482 29.366C18.458 32.218 15.652 33.644 12.064 33.644C8.476 33.644 5.65467 32.218 3.6 29.366C1.576 26.4833 0.564 22.3587 0.564 16.992C0.564 14.324 0.824667 11.9627 1.346 9.908C1.898 7.85333 2.68 6.12067 3.692 4.71C4.704 3.29933 5.91533 2.226 7.326 1.49C8.73667 0.753997 10.316 0.385998 12.064 0.385998C15.652 0.385998 18.458 1.82733 20.482 4.71C22.5367 7.562 23.564 11.656 23.564 16.992ZM16.572 16.992C16.572 15.3973 16.4953 13.956 16.342 12.668C16.1887 11.3493 15.9433 10.2147 15.606 9.264C15.2687 8.31333 14.8087 7.57733 14.226 7.056C13.6433 6.53467 12.9227 6.274 12.064 6.274C11.2053 6.274 10.4847 6.53467 9.902 7.056C9.35 7.57733 8.89 8.31333 8.522 9.264C8.18467 10.2147 7.93933 11.3493 7.786 12.668C7.63267 13.956 7.556 15.3973 7.556 16.992C7.556 18.5867 7.63267 20.0433 7.786 21.362C7.93933 22.6807 8.18467 23.8153 8.522 24.766C8.89 25.7167 9.35 26.4527 9.902 26.974C10.4847 27.4953 11.2053 27.756 12.064 27.756C12.9227 27.756 13.6433 27.4953 14.226 26.974C14.8087 26.4527 15.2687 25.7167 15.606 24.766C15.9433 23.8153 16.1887 22.6807 16.342 21.362C16.4953 20.0433 16.572 18.5867 16.572 16.992ZM28.3645 7.746C29.2539 7.378 30.1739 6.964 31.1245 6.504C32.1059 6.01333 33.0565 5.492 33.9765 4.94C34.8965 4.35733 35.7705 3.75933 36.5985 3.146C37.4572 2.502 38.2239 1.82733 38.8985 1.122H43.6825V33H36.8285V10.046C35.9085 10.6593 34.8812 11.2267 33.7465 11.748C32.6119 12.2387 31.5079 12.668 30.4345 13.036L28.3645 7.746Z"/>
        </g>
    </symbol>

    <symbol id="02" viewBox="0 0 44 34">
        <g>
            <path d="M23.564 16.992C23.564 22.3587 22.5367 26.4833 20.482 29.366C18.458 32.218 15.652 33.644 12.064 33.644C8.476 33.644 5.65467 32.218 3.6 29.366C1.576 26.4833 0.564 22.3587 0.564 16.992C0.564 14.324 0.824667 11.9627 1.346 9.908C1.898 7.85333 2.68 6.12067 3.692 4.71C4.704 3.29933 5.91533 2.226 7.326 1.49C8.73667 0.753997 10.316 0.385998 12.064 0.385998C15.652 0.385998 18.458 1.82733 20.482 4.71C22.5367 7.562 23.564 11.656 23.564 16.992ZM16.572 16.992C16.572 15.3973 16.4953 13.956 16.342 12.668C16.1887 11.3493 15.9433 10.2147 15.606 9.264C15.2687 8.31333 14.8087 7.57733 14.226 7.056C13.6433 6.53467 12.9227 6.274 12.064 6.274C11.2053 6.274 10.4847 6.53467 9.902 7.056C9.35 7.57733 8.89 8.31333 8.522 9.264C8.18467 10.2147 7.93933 11.3493 7.786 12.668C7.63267 13.956 7.556 15.3973 7.556 16.992C7.556 18.5867 7.63267 20.0433 7.786 21.362C7.93933 22.6807 8.18467 23.8153 8.522 24.766C8.89 25.7167 9.35 26.4527 9.902 26.974C10.4847 27.4953 11.2053 27.756 12.064 27.756C12.9227 27.756 13.6433 27.4953 14.226 26.974C14.8087 26.4527 15.2687 25.7167 15.606 24.766C15.9433 23.8153 16.1887 22.6807 16.342 21.362C16.4953 20.0433 16.572 18.5867 16.572 16.992ZM47.9605 9.494C47.9605 10.6593 47.7305 11.7787 47.2705 12.852C46.8105 13.9253 46.2125 14.968 45.4765 15.98C44.7405 16.9613 43.9125 17.912 42.9925 18.832C42.0725 19.752 41.1679 20.626 40.2785 21.454C39.8185 21.8833 39.3125 22.374 38.7605 22.926C38.2392 23.4473 37.7332 23.984 37.2425 24.536C36.7519 25.088 36.3072 25.6093 35.9085 26.1C35.5405 26.56 35.3105 26.9433 35.2185 27.25H48.9265V33H27.6745C27.6132 32.6627 27.5825 32.2333 27.5825 31.712C27.5825 31.1907 27.5825 30.8227 27.5825 30.608C27.5825 29.136 27.8125 27.7867 28.2725 26.56C28.7632 25.3333 29.3919 24.1987 30.1585 23.156C30.9252 22.0827 31.7839 21.086 32.7345 20.166C33.7159 19.246 34.6819 18.326 35.6325 17.406C36.3685 16.7007 37.0585 16.0413 37.7025 15.428C38.3465 14.784 38.9139 14.1707 39.4045 13.588C39.8952 12.9747 40.2785 12.3767 40.5545 11.794C40.8305 11.1807 40.9685 10.5673 40.9685 9.954C40.9685 8.60467 40.5852 7.654 39.8185 7.102C39.0519 6.55 38.1012 6.274 36.9665 6.274C36.1385 6.274 35.3565 6.412 34.6205 6.688C33.9152 6.93333 33.2559 7.24 32.6425 7.608C32.0599 7.94533 31.5539 8.298 31.1245 8.666C30.6952 9.00333 30.3732 9.27933 30.1585 9.494L26.7545 4.71C28.1039 3.45267 29.6679 2.42533 31.4465 1.628C33.2559 0.799998 35.1879 0.385998 37.2425 0.385998C39.1132 0.385998 40.7232 0.600664 42.0725 1.03C43.4219 1.45933 44.5259 2.07266 45.3845 2.87C46.2739 3.63666 46.9179 4.58733 47.3165 5.722C47.7459 6.826 47.9605 8.08333 47.9605 9.494Z"/>
        </g>
    </symbol>

    <symbol id="03" viewBox="0 0 44 34">
        <g>
            <path d="M23.564 16.992C23.564 22.3587 22.5367 26.4833 20.482 29.366C18.458 32.218 15.652 33.644 12.064 33.644C8.476 33.644 5.65467 32.218 3.6 29.366C1.576 26.4833 0.564 22.3587 0.564 16.992C0.564 14.324 0.824667 11.9627 1.346 9.908C1.898 7.85333 2.68 6.12067 3.692 4.71C4.704 3.29933 5.91533 2.226 7.326 1.49C8.73667 0.753997 10.316 0.385998 12.064 0.385998C15.652 0.385998 18.458 1.82733 20.482 4.71C22.5367 7.562 23.564 11.656 23.564 16.992ZM16.572 16.992C16.572 15.3973 16.4953 13.956 16.342 12.668C16.1887 11.3493 15.9433 10.2147 15.606 9.264C15.2687 8.31333 14.8087 7.57733 14.226 7.056C13.6433 6.53467 12.9227 6.274 12.064 6.274C11.2053 6.274 10.4847 6.53467 9.902 7.056C9.35 7.57733 8.89 8.31333 8.522 9.264C8.18467 10.2147 7.93933 11.3493 7.786 12.668C7.63267 13.956 7.556 15.3973 7.556 16.992C7.556 18.5867 7.63267 20.0433 7.786 21.362C7.93933 22.6807 8.18467 23.8153 8.522 24.766C8.89 25.7167 9.35 26.4527 9.902 26.974C10.4847 27.4953 11.2053 27.756 12.064 27.756C12.9227 27.756 13.6433 27.4953 14.226 26.974C14.8087 26.4527 15.2687 25.7167 15.606 24.766C15.9433 23.8153 16.1887 22.6807 16.342 21.362C16.4953 20.0433 16.572 18.5867 16.572 16.992ZM35.6325 33.69C34.8045 33.69 33.9305 33.6287 33.0105 33.506C32.0905 33.414 31.2012 33.276 30.3425 33.092C29.4839 32.908 28.7019 32.7087 27.9965 32.494C27.2912 32.2793 26.7392 32.08 26.3405 31.896L27.6745 26.192C28.4719 26.5293 29.4839 26.8973 30.7105 27.296C31.9679 27.664 33.5165 27.848 35.3565 27.848C37.4725 27.848 39.0212 27.4493 40.0025 26.652C40.9839 25.8547 41.4745 24.7813 41.4745 23.432C41.4745 22.604 41.2905 21.914 40.9225 21.362C40.5852 20.7793 40.1099 20.3193 39.4965 19.982C38.8832 19.614 38.1472 19.3687 37.2885 19.246C36.4605 19.0927 35.5712 19.016 34.6205 19.016H31.9525V13.496H34.9885C35.6632 13.496 36.3072 13.4347 36.9205 13.312C37.5645 13.1893 38.1319 12.99 38.6225 12.714C39.1132 12.4073 39.4965 12.0087 39.7725 11.518C40.0792 10.9967 40.2325 10.3527 40.2325 9.586C40.2325 9.00333 40.1099 8.49733 39.8645 8.068C39.6192 7.63866 39.2972 7.286 38.8985 7.01C38.5305 6.734 38.0859 6.53467 37.5645 6.412C37.0739 6.25867 36.5679 6.182 36.0465 6.182C34.7279 6.182 33.5012 6.38133 32.3665 6.78C31.2625 7.17866 30.2505 7.66933 29.3305 8.252L26.8925 3.238C27.3832 2.93133 27.9505 2.60933 28.5945 2.272C29.2692 1.93467 30.0052 1.628 30.8025 1.352C31.5999 1.076 32.4432 0.845999 33.3325 0.662C34.2525 0.477998 35.2185 0.385998 36.2305 0.385998C38.1012 0.385998 39.7112 0.615998 41.0605 1.076C42.4405 1.50533 43.5752 2.134 44.4645 2.962C45.3539 3.75933 46.0132 4.71 46.4425 5.814C46.8719 6.88733 47.0865 8.068 47.0865 9.356C47.0865 10.6133 46.7339 11.84 46.0285 13.036C45.3232 14.2013 44.3725 15.0907 43.1765 15.704C44.8325 16.3787 46.1052 17.3907 46.9945 18.74C47.9145 20.0587 48.3745 21.6533 48.3745 23.524C48.3745 24.996 48.1292 26.3607 47.6385 27.618C47.1479 28.8447 46.3812 29.918 45.3385 30.838C44.2959 31.7273 42.9619 32.4327 41.3365 32.954C39.7419 33.4447 37.8405 33.69 35.6325 33.69Z"/>
        </g>
    </symbol>

    <symbol id="04" viewBox="0 0 44 34">
        <g>
            <path d="M23.564 16.992C23.564 22.3587 22.5367 26.4833 20.482 29.366C18.458 32.218 15.652 33.644 12.064 33.644C8.476 33.644 5.65467 32.218 3.6 29.366C1.576 26.4833 0.564 22.3587 0.564 16.992C0.564 14.324 0.824667 11.9627 1.346 9.908C1.898 7.85333 2.68 6.12067 3.692 4.71C4.704 3.29933 5.91533 2.226 7.326 1.49C8.73667 0.753997 10.316 0.385998 12.064 0.385998C15.652 0.385998 18.458 1.82733 20.482 4.71C22.5367 7.562 23.564 11.656 23.564 16.992ZM16.572 16.992C16.572 15.3973 16.4953 13.956 16.342 12.668C16.1887 11.3493 15.9433 10.2147 15.606 9.264C15.2687 8.31333 14.8087 7.57733 14.226 7.056C13.6433 6.53467 12.9227 6.274 12.064 6.274C11.2053 6.274 10.4847 6.53467 9.902 7.056C9.35 7.57733 8.89 8.31333 8.522 9.264C8.18467 10.2147 7.93933 11.3493 7.786 12.668C7.63267 13.956 7.556 15.3973 7.556 16.992C7.556 18.5867 7.63267 20.0433 7.786 21.362C7.93933 22.6807 8.18467 23.8153 8.522 24.766C8.89 25.7167 9.35 26.4527 9.902 26.974C10.4847 27.4953 11.2053 27.756 12.064 27.756C12.9227 27.756 13.6433 27.4953 14.226 26.974C14.8087 26.4527 15.2687 25.7167 15.606 24.766C15.9433 23.8153 16.1887 22.6807 16.342 21.362C16.4953 20.0433 16.572 18.5867 16.572 16.992ZM39.8185 9.494C38.6225 11.058 37.3499 12.76 36.0005 14.6C34.6512 16.44 33.5165 18.326 32.5965 20.258H39.8185V9.494ZM46.5345 1.122V20.258H49.9385V25.87H46.5345V33H39.8185V25.87H26.0645V20.856C26.7392 19.5067 27.5825 17.9887 28.5945 16.302C29.6065 14.5847 30.7259 12.8367 31.9525 11.058C33.2099 9.24867 34.5285 7.48533 35.9085 5.768C37.2885 4.05067 38.6685 2.502 40.0485 1.122H46.5345Z"/>
        </g>
    </symbol>

</svg>
